<?xml version="1.0" encoding="UTF-8"?><svg id="Livello_6" xmlns="http://www.w3.org/2000/svg" xmlns:xlink="http://www.w3.org/1999/xlink" viewBox="0 0 5766.13 4358.45"><defs><style>.cls-1,.cls-2,.cls-3,.cls-4,.cls-5,.cls-6,.cls-7,.cls-8,.cls-9,.cls-10,.cls-11,.cls-12{opacity:.5;}.cls-1,.cls-13{fill:#d3a182;}.cls-14,.cls-12{fill:#e3ae24;}.cls-15,.cls-11{fill:#d0aba2;}.cls-2,.cls-16{fill:#8dac5c;}.cls-3,.cls-17{fill:#688b3f;}.cls-4,.cls-18{fill:#c3d898;}.cls-19,.cls-5{fill:#649c9e;}.cls-20,.cls-9{fill:#c7e0df;}.cls-6{fill:none;}.cls-21,.cls-7{fill:#9c6e55;}.cls-8,.cls-22{fill:#d87670;}.cls-10,.cls-23{fill:#eecc79;}</style></defs><circle class="cls-11" cx="2695.61" cy="1077.79" r="294.92"/><ellipse class="cls-2" cx="4828.79" cy="2102.09" rx="295.86" ry="282.05" transform="translate(835.41 5535.59) rotate(-64.21)"/><circle class="cls-3" cx="3083.8" cy="2262.1" r="253.31"/><circle class="cls-4" cx="2429.78" cy="3022.26" r="236.68"/><circle class="cls-8" cx="2767.06" cy="1695.05" r="287.52"/><circle class="cls-5" cx="1667.81" cy="1976.27" r="312.56"/><circle class="cls-7" cx="1559.8" cy="3250.37" r="243.57"/><circle class="cls-1" cx="3273.24" cy="1670.54" r="172.78"/><circle class="cls-9" cx="2411.77" cy="2290.63" r="346.86"/><circle class="cls-12" cx="3251.49" cy="2899.5" r="297.14" transform="translate(-1097.92 3148.39) rotate(-45)"/><circle class="cls-10" cx="4087.78" cy="2477.42" r="327.06"/><g class="cls-6"><path class="cls-16" d="m4873.75,2273.91s23.15-10.16,44.85-24.29c179.9-117.13,172.34-273,172.34-273,4.65-111.67-76.77-228.11-188-239-33.06-3.24-66.38,2.41-98.63,10.41-37.33,9.25-74.56,22.03-105.41,45-38.51,28.67-64.31,71.1-85.55,114.15-29.19,59.18-51.91,123.23-51.93,189.22-.01,29.59,1.98,62.34,20.89,98.74,45.61,87.77,146.98,103.96,151.79,104.65,60.82,8.72,111.96-13.73,139.64-25.88Z"/></g><g class="cls-6"><path class="cls-18" d="m2503.01,3173.54c10.82-16.4,41.5-64.4,38.26-131.68-.45-9.26-6.42-94.92-74.51-150.49-17.33-14.14-37.12-25.82-58.88-31.01-48.16-11.46-98.32,10.31-138.36,39.42-43.98,31.97-82.52,76.47-91.24,130.14-3.79,23.34-1.76,47.32,2.96,70.5,3.69,18.13,30.85,133.23,126.82,159.21,61.15,16.55,114.53-12.77,125.52-18.8,38.52-21.16,58.58-50.82,69.44-67.28Z"/></g><g class="cls-6"><path class="cls-21" d="m1721.28,3370.72c67.8-90.45,46.76-201.41,45.18-209.11-19.71-95.91-88.58-148.1-127.85-179.11-34.8-27.48-74.08-50.84-117.55-59.62-85.63-17.28-176.66,27.41-227.44,98.49-50.78,71.08-64.83,163.82-52.5,250.3,13.21,92.66,66.35,190.22,157.3,212.33,29.86,7.26,54.16,5.24,103.39-1.12,41.04-5.31,115.57-15.92,181.03-71.9,8.42-7.2,23.27-20.05,38.44-40.29Z"/></g><g class="cls-6"><path class="cls-13" d="m3401.04,1737.02c14.13-33.14,30.26-70.93,22.44-116.64-7.35-43-32.22-71.97-50.71-93.28-8.71-10.05-17.7-20.32-29.42-26.6-39.08-20.96-85.06,10.3-116.89,41.19-48.33,46.89-94.65,99.85-112.65,164.74-18,64.89.14,144.11,57.74,178.99,12.36,7.48,26.46,12.78,40.9,12.4,18.61-.49,32.48-7.77,44.55-15.03,53.13-31.98,89.13-53.65,120.6-101.63,3.32-5.06,13.64-21.16,23.43-44.13Z"/></g><g class="cls-6"><path class="cls-20" d="m2527.57,2510.97c86.7-88.18,164.14-294.9,82.79-472.68-16.3-35.61-53.74-117.82-138.67-150.29-37.61-14.38-79.2-15.85-119.05-10.09-78.77,11.39-153.12,51.2-206.27,110.44-48.62,54.2-79.01,123.15-94,194.4-17.28,82.11-14.29,170.3,20.51,246.64,9.12,20.01,64.13,123.27,186.63,154.33,94.91,24.06,189.55-6.02,249-55.17,9.26-7.65,15.58-14.05,19.06-17.58Z"/></g><g class="cls-6"><path class="cls-14" d="m3074.71,3037.18c-2.96,37.61,18.4,74.33,48.63,96.9,30.23,22.57,68.14,32.63,105.67,36.46,129.46,13.19,263.91-47.81,339.25-153.91,34.56-48.67,57.43-108.42,50.13-167.67-11.23-91.15-89.11-159.34-169.03-204.59-37.83-21.42-78.06-40.07-121.07-46.39-43.01-6.32-89.39.85-124.1,27.02-35.89,27.06-55.19,70.43-70.2,112.8-34.56,97.54-54.28,200.32-58.27,303.73"/></g><g class="cls-6"><path class="cls-17" d="m3201.41,2333.64c-.04-15.88-.94-68.27-37.79-108.43-5.57-6.06-11.01-10.83-18.61-16.67-36.67-28.16-113.2-90.07-187.8-68.54-31.84,9.19-59.02,30.38-81.65,54.6-48.35,51.74-79.51,120.98-78.82,191.79.69,70.82,35.44,142.04,94.9,180.51,59.46,38.47,142.78,39.64,199.66-2.55,40.79-30.27,64.75-76.51,75-97.97,12.03-25.19,18.94-49.36,21.72-59.24,8.08-28.7,13.46-47.81,13.39-73.49Z"/></g><g class="cls-6"><path class="cls-22" d="m2969.79,1524.19c-15.22-19.01-33-31.99-57.55-49.92-17.92-13.09-33.49-24.32-56.65-34.17-2.55-1.08-31.43-13.17-63.83-16.76-10.35-1.15-101.27-14.3-161.56,46.62-55.35,55.93-65.87,141.17-69.88,219.76-1.57,30.83-2.39,62.9,9.95,91.19,23.81,54.53,88.72,78.29,148.01,83.32,24.18,2.05,122.31,18.96,204.73-50.09,6.34-5.31,92-79.4,84.32-186.46-1.03-14.37-4.46-62.17-37.55-103.48Z"/></g><g class="cls-6"><path class="cls-19" d="m1781.7,2167.57c39.61-9.27,84.23-19.72,119.94-40.88,75.57-44.77,100.19-131.35,109.55-161.87,24.87-81.08,23.79-174.56-23.55-244.93-50.93-75.7-148.61-111.59-239.49-103.42s-174.77,54.96-243.12,115.4c-61.75,54.6-116,130.62-106.32,212.48,8.46,71.57,58.92,118.09,94.59,150.57,16.13,14.69,99.2,90.33,207.71,86.35,26.26-.96,49.59-6.42,80.7-13.71Z"/></g><g class="cls-6"><path class="cls-15" d="m2812.86,1243.07c4.78-9.65,41.59-86.94,11.09-170.08-26.23-71.53-86.47-102.31-150.75-137.25-34.61-18.81-72.38-35.55-111.71-33.48-47.75,2.51-90.73,33.22-118.05,72.46-27.31,39.24-41,86.29-50.76,133.1-14.24,68.32-19.05,145.98,23.32,201.44,42.88,56.14,113.41,63.98,140.73,67.26,91.97,11.03,177.55-32.08,226.01-88.46,17.79-20.69,27.39-39.47,30.12-44.99Z"/></g><g class="cls-6"><path class="cls-23" d="m4184.3,2734.31c112.7-29.13,150.72-179.83,156.24-202.02,23.77-95.52-1.11-173.66-29.49-263.39-21.12-66.8-49.04-134.26-100.45-181.86-51.41-47.59-131.68-70.1-193.4-36.96-30.13,16.18-52.68,43.34-72.87,70.94-38.6,52.76-71.53,109.66-98.07,169.41-36.83,82.93-49.08,129.06-39.87,185.18,22.32,135.96,175.14,205.56,220.85,226.38,55.25,25.16,102.14,46.52,157.06,32.32Z"/></g><image id="DEF_ESTATE" width="4000" height="5500" transform="translate(-797.95 2911.4) rotate(-64.31)" xlink:href="../../../../../../Users/hp/Documents/01-LAVORO/02b-ORTO IN COTICA/Orto Digitale TOCC 2024/02 - MAPPA/SVG DEFINITIVI/PNG-ESTATE.png"/></svg>